<?xml version="1.0" encoding="UTF-8" standalone="no"?>
<!-- Created with Inkscape (http://www.inkscape.org/) -->

<svg
   width="256"
   height="256"
   viewBox="0 0 67.733331 67.733335"
   version="1.1"
   id="svg1"
   sodipodi:docname="updo-favicon.svg"
   inkscape:version="1.4 (e7c3feb100, 2024-10-09)"
   inkscape:export-filename="../favicon.png"
   inkscape:export-xdpi="96"
   inkscape:export-ydpi="96"
   xmlns:inkscape="http://www.inkscape.org/namespaces/inkscape"
   xmlns:sodipodi="http://sodipodi.sourceforge.net/DTD/sodipodi-0.dtd"
   xmlns="http://www.w3.org/2000/svg"
   xmlns:svg="http://www.w3.org/2000/svg">
  <sodipodi:namedview
     id="namedview1"
     pagecolor="#ffffff"
     bordercolor="#000000"
     borderopacity="0.25"
     inkscape:showpageshadow="2"
     inkscape:pageopacity="0.0"
     inkscape:pagecheckerboard="0"
     inkscape:deskcolor="#d1d1d1"
     inkscape:document-units="mm"
     inkscape:zoom="1.539829"
     inkscape:cx="115.59725"
     inkscape:cy="147.09426"
     inkscape:window-width="1920"
     inkscape:window-height="998"
     inkscape:window-x="0"
     inkscape:window-y="26"
     inkscape:window-maximized="1"
     inkscape:current-layer="svg1"
     showgrid="false" />
  <defs
     id="defs1" />
  <rect
     style="fill:#0f172a;stroke-width:0.290275"
     id="rect1"
     width="78.616447"
     height="78.616447"
     x="107.5312"
     y="-2.2042081"
     rx="3.4711363"
     ry="3.4711363"
     transform="matrix(0.86156694,0,0,0.86156694,-92.473502,2.0708981)" />
  <g
     id="layer1"
     transform="matrix(0.86156695,0,0,0.86156695,-91.270718,1.5554188)">
    <path
       style="fill:#10b981;fill-opacity:1;stroke:#10b981;stroke-width:2.5;stroke-linejoin:round;stroke-linecap:round;stroke-opacity:1"
       d="m 118.98543,32.062647 v -9.088043 h 5.14774 5.14773 l 0.003,13.760294 c 0.003,14.085261 0.10435,15.231798 1.66143,18.67459 4.40982,9.749825 19.29835,9.600288 24.14393,-0.242487 1.2901,-2.620578 1.2901,-2.620578 1.56727,-12.951715 0.25799,-9.616772 0.5673,-13.071722 1.52763,-17.062796 0.56315,-2.340492 0.5166,-2.486501 -0.88692,-2.780715 -1.3527,-0.283565 -6.22996,-1.765154 -6.72163,-2.041865 -0.25195,-0.141801 2.96501,-3.048835 11.97202,-10.8186149 1.38857,-1.1978388 3.77644,-3.2825434 5.3064,-4.6326777 1.52991,-1.350137 2.85151,-2.3849568 2.93688,-2.299605 0.0853,0.085348 0.83429,2.7937295 1.6643,6.0186069 0.83,3.2248817 2.33319,9.0479757 3.3404,12.9402157 2.16389,8.362116 2.42575,7.691551 -2.33891,5.9889 -2.13075,-0.761364 -4.08673,-1.384295 -4.34681,-1.384295 -1.02352,0 -1.81411,6.638911 -1.81954,15.279377 -0.009,13.453211 -1.64971,18.952347 -7.33587,24.579022 -11.66488,11.542864 -31.92046,7.506469 -38.79004,-6.853981 -2.75151,-5.751843 -2.17903,-13.686696 -2.17903,-27.084211 z"
       id="path5-3"
       sodipodi:nodetypes="scccccsssssssssscscsss" />
  </g>
</svg>
