<?xml version="1.0" encoding="UTF-8" standalone="no"?>
<!-- Created with Inkscape (http://www.inkscape.org/) -->

<svg
   width="152.32414mm"
   height="61.647915mm"
   viewBox="0 0 152.32414 61.647915"
   version="1.1"
   id="svg1"
   inkscape:version="1.4 (e7c3feb100, 2024-10-09)"
   sodipodi:docname="updo-logo.svg"
   xmlns:inkscape="http://www.inkscape.org/namespaces/inkscape"
   xmlns:sodipodi="http://sodipodi.sourceforge.net/DTD/sodipodi-0.dtd"
   xmlns="http://www.w3.org/2000/svg"
   xmlns:svg="http://www.w3.org/2000/svg">
  <sodipodi:namedview
     id="namedview1"
     pagecolor="#ffffff"
     bordercolor="#000000"
     borderopacity="0.25"
     inkscape:showpageshadow="2"
     inkscape:pageopacity="0.0"
     inkscape:pagecheckerboard="0"
     inkscape:deskcolor="#d1d1d1"
     inkscape:document-units="mm"
     inkscape:zoom="0.70110129"
     inkscape:cx="397.23219"
     inkscape:cy="555.55453"
     inkscape:window-width="1920"
     inkscape:window-height="998"
     inkscape:window-x="0"
     inkscape:window-y="26"
     inkscape:window-maximized="1"
     inkscape:current-layer="layer1" />
  <defs
     id="defs1" />
  <g
     inkscape:label="Layer 1"
     inkscape:groupmode="layer"
     id="layer1"
     transform="translate(-0.18814551,-1.3743713)">
    <path
       style="fill:#477da2;fill-opacity:1;stroke:none;stroke-width:0.264583;stroke-opacity:1"
       d="m 36.829416,52.306662 c 0,-6.504744 -0.0976,-10.715625 -0.24849,-10.715625 -0.13667,0 -0.77719,0.457579 -1.42337,1.016844 -9.54993,8.265409 -23.24813,9.422863 -30.2382205,2.555031 C 0.77512551,41.091184 0.19998551,38.772947 0.19314551,26.112913 l -0.005,-9.525 3.50403999,-0.07383 3.50403,-0.07382 0.006,9.069657 c 0.007,9.257626 0.1095,10.445367 1.08477,12.520152 2.4771705,5.269958 10.0300405,6.617475 14.2194105,2.536905 2.70964,-2.639277 2.93856,-3.810106 2.94246,-15.049376 l 0.003,-9.061979 h 3.45605 3.45606 l -0.0826,10.614141 -0.0826,10.614139 1.47948,-1.608905 c 1.75715,-1.910863 3.1494,-4.397507 3.15414,-5.633495 0.002,-0.488952 0.24134,-1.648039 0.53213,-2.575745 4.92962,-15.72674 27.08118,-16.020306 32.44085,-0.429927 0.80584,2.344063 1.03214,7.886047 0.38773,9.495549 -0.50029,1.249543 -0.10614,1.131361 1.2977,-0.389098 1.45901,-1.580214 3.43818,-5.112674 3.43818,-6.136516 0,-8.531365 10.58333,-15.940476 20.1512,-14.107329 4.16512,0.798012 4.05817,0.657847 4.05817,5.318712 0,2.254303 -0.0438,4.098769 -0.0974,4.098811 -0.0536,4.5e-5 -0.50334,-0.356378 -0.99954,-0.792046 -5.4745,-4.806672 -13.71202,-1.963311 -16.09234,5.554626 -4.26008,13.454864 -21.68504,22.658284 -34.07378,17.996902 l -1.52135,-0.572423 v -3.971973 -3.971972 l 1.0373,0.821555 c 6.66139,5.275918 16.02832,0.646985 16.02832,-7.920839 0,-11.778769 -15.92289,-14.225537 -19.35346,-2.973922 -0.3159,1.036097 -0.38047,4.025534 -0.3714,17.195276 l 0.011,15.941145 h -3.43837 -3.43837 z m 51.59375,-2.914668 c -4.24965,-0.868323 -7.94296,-3.076424 -10.07994,-6.026444 l -0.73878,-1.019857 1.579,-1.880579 c 0.86845,-1.034317 1.89574,-2.381245 2.28288,-2.993168 l 0.70387,-1.112591 0.89462,1.491361 c 5.17055,8.619505 17.815224,5.693251 18.588614,-4.301813 0.0913,-1.179378 0.13332,-8.901121 0.0935,-17.159428 l -0.0725,-15.0151037 h 3.57789 3.57789 l -0.0894,17.3963537 c -0.0658,12.792477 -0.17357,17.588913 -0.40739,18.123958 -0.49894,1.141765 0.0154,0.86333 1.63318,-0.884012 3.10891,-3.357983 3.59201,-5.17134 3.59201,-13.482656 v -6.072394 h 3.43959 3.43958 l 0.002,9.194271 c 0.002,9.411404 0.0697,10.177491 1.11013,12.477874 2.94653,6.514579 12.89466,6.414664 16.13235,-0.162023 0.86201,-1.751002 0.86201,-1.751002 1.0472,-8.653999 0.17238,-6.425676 0.37906,-8.734184 1.02073,-11.400915 0.37629,-1.563856 0.34517,-1.661416 -0.59262,-1.858002 -0.90384,-0.18947 -4.1627,-1.17943 -4.49121,-1.364321 -0.16835,-0.09475 1.98113,-2.037151 7.99938,-7.2287177 0.92781,-0.800365 2.52333,-2.193311 3.5456,-3.095435 1.02226,-0.902126 1.90532,-1.593566 1.96235,-1.536536 0.057,0.05703 0.55745,1.866697 1.11204,4.021477 0.55459,2.154782 1.55897,6.0456227 2.23196,8.6463157 1.44586,5.587349 1.62084,5.139295 -1.56279,4.001627 -1.42371,-0.508723 -2.73065,-0.924949 -2.90442,-0.924949 -0.68389,0 -1.21214,4.435946 -1.21577,10.209281 -0.006,8.989084 -1.1023,12.663466 -4.90164,16.423063 -7.79417,7.712641 -21.81779,5.234749 -25.9185,-4.579652 l -0.40464,-0.968438 -1.64993,1.620962 c -6.29395,6.183436 -16.869784,9.680998 -24.536394,8.11449 z"
       id="path5-3"
       sodipodi:nodetypes="sscssccccssccccccscssssssssssscccsssscccssscsscssscccssssccccsssssssssssssssscss" />
  </g>
</svg>
